<svg width="48" height="48" viewBox="0 0 48 48" fill="none" xmlns="http://www.w3.org/2000/svg">
<path d="M14.6667 25.3332H30.48L25.64 31.1465C25.5279 31.2813 25.4435 31.4369 25.3916 31.6044C25.3397 31.7718 25.3212 31.9478 25.3373 32.1224C25.3698 32.475 25.5411 32.8002 25.8133 33.0265C26.0856 33.2528 26.4367 33.3617 26.7892 33.3292C27.1418 33.2967 27.467 33.1255 27.6933 32.8532L34.36 24.8532C34.4049 24.7895 34.445 24.7227 34.48 24.6532C34.48 24.5865 34.5467 24.5465 34.5733 24.4798C34.6338 24.327 34.6654 24.1642 34.6667 23.9998C34.6654 23.8355 34.6338 23.6727 34.5733 23.5198C34.5733 23.4532 34.5067 23.4132 34.48 23.3465C34.445 23.277 34.4049 23.2101 34.36 23.1465L27.6933 15.1465C27.568 14.996 27.411 14.875 27.2335 14.792C27.0561 14.709 26.8626 14.6662 26.6667 14.6665C26.3551 14.6659 26.0532 14.7744 25.8133 14.9732C25.6783 15.0851 25.5667 15.2226 25.4849 15.3777C25.4031 15.5328 25.3527 15.7026 25.3366 15.8772C25.3205 16.0518 25.339 16.2279 25.3911 16.3954C25.4432 16.5629 25.5277 16.7184 25.64 16.8532L30.48 22.6665H14.6667C14.3131 22.6665 13.9739 22.807 13.7239 23.057C13.4738 23.3071 13.3333 23.6462 13.3333 23.9998C13.3333 24.3535 13.4738 24.6926 13.7239 24.9426C13.9739 25.1927 14.3131 25.3332 14.6667 25.3332Z" fill="black"/>
</svg>
