<svg width="32" height="32" viewBox="0 0 32 32" fill="none" xmlns="http://www.w3.org/2000/svg">
<path d="M31.5648 27.6654L25.3331 21.4337C25.0518 21.1524 24.6706 20.9962 24.2705 20.9962H23.2517C24.9768 18.7898 26.0019 16.0146 26.0019 12.9956C26.0019 5.8138 20.1827 -0.00537109 13.001 -0.00537109C5.81918 -0.00537109 0 5.8138 0 12.9956C0 20.1774 5.81918 25.9965 13.001 25.9965C16.0199 25.9965 18.7951 24.9715 21.0015 23.2463V24.2652C21.0015 24.6652 21.1578 25.0465 21.4391 25.3277L27.6708 31.5594C28.2583 32.147 29.2084 32.147 29.7897 31.5594L31.5586 29.7906C32.1461 29.203 32.1461 28.2529 31.5648 27.6654ZM13.001 20.9962C8.58188 20.9962 5.00037 17.4209 5.00037 12.9956C5.00037 8.57651 8.57563 4.99499 13.001 4.99499C17.42 4.99499 21.0015 8.57026 21.0015 12.9956C21.0015 17.4147 17.4263 20.9962 13.001 20.9962Z" fill="black"/>
</svg>
