<svg width="48" height="48" viewBox="0 0 48 48" fill="none" xmlns="http://www.w3.org/2000/svg">
<rect width="48" height="48" rx="24" fill="white"/>
<path d="M14.6666 25.3333H30.48L25.64 31.1466C25.5279 31.2815 25.4435 31.437 25.3916 31.6045C25.3396 31.7719 25.3212 31.948 25.3373 32.1225C25.3698 32.4751 25.541 32.8003 25.8133 33.0266C26.0856 33.2529 26.4366 33.3618 26.7892 33.3293C27.1418 33.2968 27.467 33.1256 27.6933 32.8533L34.36 24.8533C34.4048 24.7897 34.4449 24.7228 34.48 24.6533C34.48 24.5866 34.5466 24.5466 34.5733 24.48C34.6337 24.3271 34.6654 24.1643 34.6666 24C34.6654 23.8356 34.6337 23.6728 34.5733 23.52C34.5733 23.4533 34.5066 23.4133 34.48 23.3466C34.4449 23.2771 34.4048 23.2103 34.36 23.1466L27.6933 15.1466C27.568 14.9961 27.411 14.8751 27.2335 14.7921C27.0561 14.7092 26.8625 14.6663 26.6666 14.6666C26.3551 14.666 26.0532 14.7745 25.8133 14.9733C25.6783 15.0852 25.5667 15.2227 25.4849 15.3778C25.4031 15.533 25.3527 15.7027 25.3366 15.8773C25.3205 16.052 25.339 16.2281 25.3911 16.3955C25.4431 16.563 25.5277 16.7186 25.64 16.8533L30.48 22.6666H14.6666C14.313 22.6666 13.9739 22.8071 13.7238 23.0572C13.4738 23.3072 13.3333 23.6463 13.3333 24C13.3333 24.3536 13.4738 24.6927 13.7238 24.9428C13.9739 25.1928 14.313 25.3333 14.6666 25.3333Z" fill="black"/>
</svg>
